<svg width="938" height="744" viewBox="0 0 938 744" fill="none" xmlns="http://www.w3.org/2000/svg">
<path d="M423.271 400.139C430.158 408.773 432.573 414.015 436.116 422.476C436.325 422.947 436.105 423.495 435.598 423.707C435.128 423.916 433.445 423.621 433.255 423.167C418.549 388.118 374.03 349.931 312.227 320.863C241.681 287.666 201.54 263.768 178.143 225.331C169.81 211.69 170.681 194.9 177.466 188.89C183.513 183.532 198.048 176.456 210.174 185.862C210.585 186.169 214.554 192.826 214.212 193.24C213.87 193.655 208.324 196.474 207.929 196.148C196.689 187.439 186.836 189.524 181.36 194.391C174.96 200.055 171.975 211.52 179.773 224.321C202.968 262.36 242.875 286.097 313.116 319.142C360.464 341.425 401.336 372.525 423.288 400.12L423.271 400.139Z" fill="#E3A14E"/>
<path d="M85.0766 134.887C78.0888 167.822 88.4555 219.519 127.645 255.233C174.907 298.304 216.22 310.6 264.068 324.873C288.928 332.283 314.648 339.939 343.421 352.667C379.734 368.73 402.216 386.748 418.165 405.444L420.992 405.356C406.918 385.355 382.476 363.797 346.085 347.668C317.197 334.879 292.81 326.532 267.878 319.128C220.256 304.943 175.927 296.625 128.964 253.835C90.276 218.6 84.1632 170.479 90.9997 138.049C94.6135 121.033 105.041 118.494 116.242 113.972C116.732 113.78 119.104 101.609 118.911 101.119C118.735 100.608 109.039 98.4784 108.532 98.6904C96.7037 103.49 88.7917 117.225 85.0603 134.906L85.0766 134.887Z" fill="#F58220"/>
<path d="M384.637 324.634C409.795 368.633 442.125 390.355 469.598 401.357L473.083 400.422C445.878 389.509 410.989 367.259 386.091 323.717C370.015 295.593 373.266 278.645 380.409 265.378C388.201 250.925 393.598 252.361 403.348 252.305C403.82 252.312 405.436 247.936 405.498 247.451C405.56 246.967 400.806 240.373 400.321 240.31C392.316 239.439 383.399 248.868 377.911 257.479C369.513 270.605 368.148 295.808 384.618 324.604L384.637 324.634Z" fill="#1B3A66"/>
<path d="M225.237 359.267C211.344 383.189 217.965 408.482 242.16 423.701C262.194 436.317 276.652 431.829 283.485 428.015C292.372 423.077 298.277 413.988 298.493 404.913C298.675 397.933 294.484 389.17 288.407 385.913C287.986 385.699 282.341 388.437 282.091 388.861C281.857 389.265 280.44 393.8 280.861 394.014C286.439 396.991 293.013 401.254 292.868 407.668C292.649 416.142 291.018 421.861 282.683 426.491C276.178 430.111 262.423 434.35 243.125 422.209C219.742 407.495 213.32 383.128 226.733 360.069C236.824 342.727 256.172 329.738 279.822 324.411C299.432 319.996 330.935 319.556 371.998 338.875C413.593 358.435 427.539 379.557 439.608 406.295C440.3 406.301 441.319 406.313 441.955 406.307C437.212 395.397 431.875 381.344 422.782 371.521C412.08 359.906 396.33 347.409 373.283 336.553C331.764 317.023 299.374 318.257 279.478 322.735C255.311 328.166 235.539 341.468 225.201 359.27L225.237 359.267Z" fill="#79A342"/>
<path d="M493.319 585.77C483.309 581.104 478.814 577.484 471.876 571.483C471.479 571.155 471.432 570.566 471.792 570.151C472.12 569.754 473.758 569.269 474.13 569.592C502.897 594.434 559.759 608.821 628.04 607.349C705.989 605.685 752.571 609.223 790.629 633.233C804.162 641.74 810.853 657.164 807.452 665.565C804.421 673.054 794.552 685.859 779.508 682.831C779.003 682.74 772.486 678.545 772.608 678.022C772.73 677.499 776.442 672.505 776.941 672.622C790.882 675.419 798.778 669.167 801.517 662.372C804.727 654.452 802.298 642.856 789.619 634.863C751.919 611.12 705.618 607.621 628.01 609.286C575.692 610.401 525.251 600.739 493.313 585.795L493.319 585.77Z" fill="#E3A14E"/>
<path d="M914.22 672.813C905.822 640.209 873.532 598.526 822.544 583.982C761.053 566.443 718.585 573.816 669.383 582.328C643.823 586.754 617.383 591.344 585.952 592.749C546.285 594.524 518.133 588.393 495.531 578.748L493.038 580.085C514.542 591.733 546.025 600.162 585.791 598.411C617.353 597.01 642.906 593.632 668.528 589.167C717.487 580.678 760.887 568.4 821.985 585.822C872.311 600.159 899.199 640.532 907.509 672.617C911.845 689.463 903.636 696.377 895.618 705.411C895.265 705.802 898.556 717.756 898.947 718.11C899.333 718.488 908.964 716.081 909.323 715.665C917.779 706.103 918.753 690.282 914.226 672.788L914.22 672.813Z" fill="#F58220"/>
<path d="M557.27 654.204C531.938 610.305 499.523 588.711 472.006 577.817L468.525 578.767C495.773 589.572 530.75 611.683 555.82 655.127C572.006 683.188 568.822 700.148 561.732 713.443C553.997 727.926 548.595 726.512 538.845 726.607C538.373 726.602 536.775 730.984 536.714 731.469C536.654 731.954 541.434 738.529 541.92 738.589C549.928 739.428 558.808 729.965 564.261 721.332C572.608 708.173 573.872 682.965 557.289 654.234L557.27 654.204Z" fill="#1B3A66"/>
<path d="M700.027 536.51C701.823 508.905 684.638 489.2 656.199 486.338C632.643 483.956 621.692 494.409 617.272 500.865C611.51 509.242 610.266 520.01 614.111 528.232C617.055 534.564 624.707 540.547 631.599 540.758C632.071 540.763 635.908 535.799 635.943 535.308C635.973 534.842 635.224 530.151 634.752 530.146C628.432 529.962 620.647 529.07 617.923 523.262C614.348 515.575 613.263 509.729 618.667 501.873C622.882 495.736 633.314 485.819 655.998 488.104C683.486 490.876 700.081 509.839 698.33 536.457C697.011 556.478 685.464 576.72 666.656 592.015C651.059 604.695 623.043 619.108 577.673 620.081C531.719 621.075 509.831 608.365 487.124 589.792C486.502 590.094 485.584 590.537 485.017 590.825C494.12 598.485 505.153 608.695 517.667 613.445C532.419 619.084 552.085 623.267 577.555 622.732C623.428 621.746 651.885 606.227 667.709 593.363C686.935 577.745 698.722 557.034 700.058 536.491L700.027 536.51Z" fill="#79A342"/>
<g clip-path="url(#clip0_515_287)">
<path d="M554.61 459.048C595.385 515.614 490.181 595.74 425.798 639.832C402.485 655.789 327.447 711.354 297.76 699.54C289.04 696.08 291.863 690.321 295.665 677.87C295.278 680.715 359.616 513.52 367.584 494.968C367.584 494.968 353.082 498.496 352.559 483.746C352.058 469.655 366.401 468.335 375.052 466.673C377.647 456.134 437.25 232.304 439.23 219.853C439.959 215.3 445.559 210.133 447.29 208.767C449.02 207.379 480.05 187.78 481.826 187.734C484.194 187.666 485.4 188.804 485.491 191.149C485.947 205.285 408.177 450.671 403.487 461.142C443.123 453.448 471.194 448.577 491.388 444.639C517.729 439.494 528.065 438.652 537.877 443.409C546.892 447.78 549.465 451.991 554.565 459.071L554.61 459.048ZM502.612 531.821C527.678 490.893 503.249 465.991 393.561 490.21C393.106 490.302 332.957 642.609 330.794 649.848C334.528 650.258 459.219 602.706 502.612 531.821Z" fill="#33383E"/>
<path d="M625.983 437.514C670.696 499.543 555.339 587.409 484.763 635.735C459.196 653.24 376.919 714.154 344.363 701.202C334.801 697.4 337.897 691.095 342.086 677.437C341.653 680.556 412.206 497.221 420.949 476.894C420.949 476.894 405.058 480.764 404.466 464.602C403.92 449.146 419.651 447.689 429.122 445.891C431.968 434.327 497.33 188.918 499.516 175.26C500.312 170.275 506.459 164.607 508.349 163.105C510.239 161.557 544.251 140.068 546.209 140C548.805 139.909 550.148 141.161 550.216 143.756C550.717 159.258 465.434 428.318 460.312 439.79C503.773 431.368 534.553 425.996 556.705 421.693C585.595 416.071 596.933 415.138 607.679 420.35C617.559 425.131 620.382 429.774 625.983 437.537V437.514ZM568.976 517.321C596.455 472.455 569.659 445.139 449.384 471.681C448.883 471.795 382.929 638.785 380.561 646.73C384.659 647.185 521.371 595.035 568.953 517.321H568.976Z" fill="#C5A266"/>
</g>
<defs>
<clipPath id="clip0_515_287">
<rect width="344" height="563" fill="white" transform="translate(292 140)"/>
</clipPath>
</defs>
</svg>
