<?xml version="1.0" standalone="no"?>
<!DOCTYPE svg PUBLIC "-//W3C//DTD SVG 20010904//EN"
 "http://www.w3.org/TR/2001/REC-SVG-20010904/DTD/svg10.dtd">
<svg version="1.0" xmlns="http://www.w3.org/2000/svg"
 width="137.000000pt" height="137.000000pt" viewBox="0 0 137.000000 137.000000"
 preserveAspectRatio="xMidYMid meet">
<metadata>
Created by potrace 1.14, written by Peter Selinger 2001-2017
</metadata>
<g transform="translate(0.000000,137.000000) scale(0.100000,-0.100000)"
fill="#000000" stroke="none">
<path d="M766 1337 l-49 -32 -87 -333 c-48 -183 -89 -334 -91 -336 -2 -1 -16
-7 -31 -14 -21 -8 -27 -18 -26 -36 1 -14 10 -27 19 -29 15 -4 9 -28 -52 -183
-38 -99 -73 -188 -78 -199 -32 -72 -52 -137 -47 -150 8 -23 65 -19 127 9 119
53 363 227 473 339 124 126 148 230 70 302 -34 32 -56 31 -228 -1 -76 -14
-139 -24 -141 -22 -2 2 14 60 36 128 72 225 169 552 169 571 0 25 -6 24 -64
-14z m107 -762 c21 -9 32 -46 23 -79 -9 -37 -80 -120 -149 -176 -65 -52 -302
-179 -313 -167 -3 3 30 97 73 209 90 228 77 213 203 225 36 3 66 7 68 8 4 3
74 -11 95 -20z"/>
</g>
</svg>
